<?xml version="1.0" standalone="no"?>
<!DOCTYPE svg PUBLIC "-//W3C//DTD SVG 20010904//EN"
 "http://www.w3.org/TR/2001/REC-SVG-20010904/DTD/svg10.dtd">
<svg version="1.0" xmlns="http://www.w3.org/2000/svg"
 width="1024.000000pt" height="1024.000000pt" viewBox="0 0 1024.000000 1024.000000"
 preserveAspectRatio="xMidYMid meet">

<g transform="translate(0.000000,1024.000000) scale(0.100000,-0.100000)"
fill="#08677E" stroke="none">
<path d="M4760 9940 c-173 -76 -531 -233 -795 -348 l-480 -209 -3 -426 -2
-425 -588 -251 c-323 -138 -593 -251 -599 -251 -10 0 -13 89 -13 410 0 228 -4
410 -9 410 -5 0 -35 -12 -67 -26 -33 -15 -160 -70 -284 -124 -592 -256 -836
-364 -847 -374 -35 -32 -60 -681 -42 -1076 33 -739 151 -1403 357 -2010 260
-767 612 -1326 1215 -1931 265 -266 249 -254 491 -348 114 -45 212 -81 217
-81 5 0 9 376 9 927 0 1021 -2 990 62 1117 33 64 134 210 205 293 l45 53 229
-1 c126 0 233 3 239 6 6 4 10 96 10 245 l0 239 58 44 c31 24 92 67 134 95 l77
52 3 -147 3 -148 280 0 280 0 5 275 5 275 50 11 c28 7 62 13 77 13 l28 1 2
-1677 3 -1678 68 -3 67 -3 0 146 0 145 280 0 279 0 3 -142 3 -143 525 0 525 0
3 920 c2 656 0 937 -9 980 -15 84 -67 190 -141 293 l-63 87 -3 -197 -2 -198
-285 0 -285 0 0 285 0 285 210 0 c116 0 210 4 210 9 0 13 -141 162 -262 277
-322 306 -650 497 -1018 593 l-105 28 -2 321 c-1 177 2 324 6 326 5 3 37 -12
72 -32 35 -21 107 -63 159 -94 52 -30 172 -100 265 -155 310 -183 619 -365
710 -418 50 -29 203 -119 340 -200 138 -81 259 -153 270 -159 11 -6 149 -87
308 -180 l287 -169 0 -1116 1 -1116 105 110 c333 349 579 665 768 988 76 129
210 407 285 590 103 249 252 720 234 737 -4 4 -120 65 -258 135 -137 70 -405
208 -595 305 -190 97 -484 248 -655 335 -170 87 -355 181 -410 210 -55 29
-217 112 -360 185 -542 276 -753 384 -860 440 -60 32 -254 131 -430 220 -176
89 -362 185 -413 212 -67 36 -93 46 -97 36 -3 -7 -6 -188 -7 -403 l-3 -390
-310 -179 c-170 -98 -461 -265 -645 -371 -941 -541 -1294 -745 -1300 -752 -4
-5 1 -170 11 -368 15 -280 69 -1361 81 -1612 1 -23 -1 -45 -4 -48 -6 -6 -135
142 -216 248 -332 436 -682 1181 -898 1912 -44 149 -45 145 23 184 58 33 970
538 1261 697 83 46 221 122 305 168 243 134 583 320 1160 636 l537 295 0 157
c0 87 -2 158 -5 158 -3 0 -120 -63 -261 -140 -140 -78 -418 -230 -617 -339
-199 -109 -841 -460 -1426 -780 -585 -320 -1066 -580 -1068 -577 -12 12 -68
584 -99 1001 -18 236 -25 827 -12 876 6 21 43 42 230 133 305 148 397 190 404
183 4 -3 13 -185 21 -404 9 -219 19 -402 23 -406 7 -7 293 107 1260 503 157
64 340 138 407 166 l123 49 2 420 3 420 65 26 c429 173 942 379 946 379 2 0 4
-337 4 -749 l0 -749 263 -137 c579 -304 1688 -886 1942 -1020 149 -78 333
-175 410 -215 77 -40 223 -117 325 -170 890 -469 1204 -630 1210 -623 9 10 61
284 89 468 26 166 56 452 72 670 23 315 14 1000 -17 1221 l-6 41 -632 277
c-347 152 -635 276 -639 276 -4 0 -7 -191 -7 -425 0 -375 -2 -425 -15 -425
-16 0 -1164 487 -1178 499 -4 4 -7 202 -8 439 l0 432 -22 14 c-19 12 -388 174
-1072 471 -104 45 -247 108 -317 139 -70 31 -135 56 -145 55 -10 0 -160 -63
-333 -139z m1040 -682 c0 -4 -10 -10 -22 -13 -13 -4 -59 -20 -104 -37 l-80
-30 -104 -339 c-57 -187 -105 -337 -108 -335 -4 5 57 884 63 903 4 11 355
-135 355 -149z m2743 -1140 c15 -5 27 -13 27 -18 0 -4 -46 -24 -103 -44 l-102
-37 -99 -327 c-55 -180 -103 -334 -108 -342 -6 -9 -7 14 -4 60 3 41 17 244 31
450 15 206 28 380 30 387 3 8 54 -10 152 -53 81 -37 160 -70 176 -76z m-2728
-2573 l0 -280 -282 -3 -283 -3 0 286 0 285 283 -2 282 -3 0 -280z m0 -890 l0
-280 -282 -3 -283 -2 0 285 0 285 283 -2 282 -3 0 -280z m708 -225 l127 0 0
-280 0 -280 -285 0 -285 0 0 279 0 280 23 3 c12 2 83 2 157 1 74 -1 192 -3
263 -3z m-708 -665 l0 -280 -282 -3 -283 -2 0 285 0 285 283 -2 282 -3 0 -280z
m819 -221 c14 -5 16 -41 16 -285 l0 -279 -285 0 -285 0 0 278 c0 153 3 281 6
284 7 8 528 10 548 2z"/>
<path d="M4408 9228 c-87 -39 -155 -74 -153 -78 3 -4 45 -22 95 -40 50 -18 94
-40 99 -49 4 -9 52 -161 106 -338 54 -178 100 -321 102 -319 2 2 -3 93 -12
202 -8 109 -22 310 -32 447 -15 209 -19 247 -33 246 -8 -1 -86 -33 -172 -71z"/>
<path d="M1638 8068 c-87 -39 -158 -73 -158 -77 0 -4 38 -19 84 -34 47 -15 93
-36 104 -45 13 -11 51 -122 112 -327 51 -170 97 -314 101 -319 5 -5 6 19 3 55
-3 35 -18 233 -33 439 -22 311 -29 375 -41 377 -8 1 -86 -30 -172 -69z"/>
<path d="M4457 5322 l-77 -3 2 -277 3 -277 278 -3 277 -2 0 132 c1 202 -1 422
-3 425 -4 4 -399 8 -480 5z"/>
<path d="M3547 4933 c-4 -3 -7 -129 -7 -279 l0 -273 198 -3 c108 -2 234 -2
278 0 75 3 82 5 85 25 2 12 3 138 1 280 l-3 257 -273 0 c-150 0 -276 -3 -279
-7z"/>
<path d="M4458 4432 l-78 -3 0 -279 0 -280 280 0 280 0 0 280 0 280 -189 0
c-104 0 -195 1 -203 3 -7 1 -48 1 -90 -1z"/>
<path d="M3553 4043 c-10 -4 -13 -68 -13 -278 0 -233 2 -274 15 -279 8 -3 134
-5 279 -5 l265 0 3 172 c2 95 2 223 0 285 l-3 112 -267 -1 c-147 -1 -273 -4
-279 -6z"/>
<path d="M4380 3260 l0 -280 279 0 280 0 3 128 c2 70 2 196 0 280 l-3 152
-279 0 -280 0 0 -280z"/>
<path d="M3737 3152 l-198 -2 3 -138 3 -137 278 -3 277 -3 0 141 0 140 -69 0
c-38 0 -75 1 -83 3 -7 1 -102 1 -211 -1z"/>
<path d="M3307 2568 c-8 -13 -142 -268 -297 -568 -156 -300 -304 -585 -330
-635 -289 -552 -501 -967 -498 -971 3 -2 1236 -3 2740 -2 l2736 3 -98 275
c-54 151 -207 579 -340 950 -133 371 -265 740 -293 820 l-52 145 -1777 3
-1778 2 -13 -22z m3777 -1038 c161 -509 296 -935 300 -947 l7 -23 -1134 0
c-1001 0 -1136 2 -1141 15 -7 21 -7 1870 1 1878 3 4 381 5 841 4 l834 -2 292
-925z"/>
</g>
</svg>
